<svg width="597" height="204" viewBox="0 0 597 204" fill="none" xmlns="http://www.w3.org/2000/svg">
<rect width="597" height="204" fill="white"/>
<path d="M81.321 136V63.2727H96.4489V90.6165H96.9105C97.5734 89.1487 98.5322 87.6572 99.7869 86.142C101.065 84.6032 102.723 83.3248 104.759 82.3068C106.818 81.2652 109.375 80.7443 112.429 80.7443C116.406 80.7443 120.076 81.786 123.438 83.8693C126.799 85.929 129.486 89.0421 131.499 93.2088C133.511 97.3518 134.517 102.548 134.517 108.798C134.517 114.883 133.535 120.02 131.57 124.21C129.628 128.377 126.977 131.537 123.615 133.692C120.277 135.822 116.536 136.888 112.393 136.888C109.458 136.888 106.96 136.402 104.901 135.432C102.865 134.461 101.196 133.242 99.8935 131.774C98.5914 130.283 97.5971 128.779 96.9105 127.264H96.2358V136H81.321ZM96.1293 108.727C96.1293 111.971 96.5791 114.8 97.4787 117.214C98.3783 119.629 99.6804 121.511 101.385 122.861C103.089 124.187 105.161 124.849 107.599 124.849C110.062 124.849 112.145 124.175 113.849 122.825C115.554 121.452 116.844 119.558 117.72 117.143C118.62 114.705 119.07 111.9 119.07 108.727C119.07 105.579 118.632 102.809 117.756 100.418C116.88 98.0265 115.589 96.1562 113.885 94.8068C112.18 93.4574 110.085 92.7827 107.599 92.7827C105.137 92.7827 103.054 93.4337 101.349 94.7358C99.6686 96.0379 98.3783 97.8845 97.4787 100.276C96.5791 102.667 96.1293 105.484 96.1293 108.727ZM152.165 137.03C148.685 137.03 145.584 136.426 142.861 135.219C140.139 133.988 137.984 132.177 136.398 129.786C134.836 127.371 134.054 124.364 134.054 120.766C134.054 117.735 134.611 115.19 135.723 113.131C136.836 111.071 138.351 109.414 140.269 108.159C142.186 106.904 144.364 105.957 146.803 105.318C149.265 104.679 151.846 104.229 154.544 103.969C157.717 103.637 160.274 103.33 162.215 103.045C164.156 102.738 165.565 102.288 166.441 101.696C167.317 101.104 167.755 100.228 167.755 99.0682V98.8551C167.755 96.6061 167.044 94.866 165.624 93.6349C164.227 92.4039 162.239 91.7884 159.658 91.7884C156.935 91.7884 154.769 92.392 153.159 93.5994C151.55 94.7831 150.484 96.2746 149.963 98.0739L135.972 96.9375C136.682 93.6231 138.079 90.7585 140.162 88.3438C142.246 85.9053 144.933 84.035 148.223 82.733C151.538 81.4072 155.373 80.7443 159.729 80.7443C162.759 80.7443 165.659 81.0994 168.429 81.8097C171.223 82.5199 173.697 83.6207 175.851 85.1122C178.029 86.6037 179.746 88.5213 181 90.8651C182.255 93.1851 182.882 95.9669 182.882 99.2102V136H168.536V128.436H168.11C167.234 130.141 166.062 131.644 164.594 132.946C163.126 134.224 161.363 135.231 159.303 135.964C157.243 136.675 154.864 137.03 152.165 137.03ZM156.498 126.589C158.723 126.589 160.688 126.152 162.392 125.276C164.097 124.376 165.435 123.169 166.405 121.653C167.376 120.138 167.861 118.422 167.861 116.504V110.716C167.388 111.024 166.737 111.308 165.908 111.568C165.103 111.805 164.192 112.03 163.174 112.243C162.156 112.432 161.138 112.61 160.12 112.776C159.102 112.918 158.178 113.048 157.35 113.166C155.574 113.427 154.024 113.841 152.698 114.409C151.372 114.977 150.342 115.747 149.608 116.717C148.874 117.664 148.507 118.848 148.507 120.268C148.507 122.328 149.253 123.902 150.745 124.991C152.26 126.057 154.177 126.589 156.498 126.589ZM232.002 97.0085L218.153 97.8608C217.916 96.6771 217.407 95.6117 216.626 94.6648C215.845 93.6941 214.815 92.9247 213.537 92.3565C212.282 91.7647 210.779 91.4688 209.027 91.4688C206.683 91.4688 204.706 91.9659 203.096 92.9602C201.486 93.9309 200.681 95.233 200.681 96.8665C200.681 98.1686 201.202 99.2694 202.244 100.169C203.286 101.069 205.073 101.791 207.606 102.335L217.478 104.324C222.781 105.413 226.735 107.165 229.339 109.58C231.943 111.994 233.245 115.167 233.245 119.097C233.245 122.671 232.192 125.808 230.085 128.507C228.002 131.206 225.137 133.313 221.491 134.828C217.869 136.32 213.69 137.065 208.956 137.065C201.735 137.065 195.982 135.562 191.697 132.555C187.436 129.525 184.938 125.406 184.204 120.197L199.083 119.416C199.533 121.618 200.622 123.299 202.35 124.459C204.079 125.595 206.292 126.163 208.991 126.163C211.643 126.163 213.773 125.654 215.383 124.636C217.017 123.595 217.845 122.257 217.869 120.624C217.845 119.25 217.265 118.126 216.129 117.25C214.993 116.35 213.241 115.664 210.873 115.19L201.427 113.308C196.1 112.243 192.135 110.396 189.531 107.768C186.95 105.141 185.66 101.791 185.66 97.7188C185.66 94.215 186.607 91.1965 188.501 88.6634C190.419 86.1302 193.106 84.1771 196.562 82.804C200.042 81.4309 204.114 80.7443 208.778 80.7443C215.667 80.7443 221.089 82.2003 225.042 85.1122C229.02 88.0241 231.34 91.9896 232.002 97.0085ZM234.771 136V81.4545H249.899V136H234.771ZM242.371 74.4233C240.122 74.4233 238.192 73.6776 236.582 72.1861C234.996 70.6709 234.203 68.8598 234.203 66.7528C234.203 64.6695 234.996 62.8821 236.582 61.3906C238.192 59.8755 240.122 59.1179 242.371 59.1179C244.62 59.1179 246.537 59.8755 248.124 61.3906C249.733 62.8821 250.538 64.6695 250.538 66.7528C250.538 68.8598 249.733 70.6709 248.124 72.1861C246.537 73.6776 244.62 74.4233 242.371 74.4233ZM278.662 137.065C273.075 137.065 268.269 135.882 264.245 133.514C260.244 131.123 257.166 127.809 255.012 123.571C252.881 119.333 251.816 114.456 251.816 108.94C251.816 103.353 252.893 98.4527 255.047 94.2386C257.225 90.0009 260.315 86.6984 264.316 84.331C268.317 81.9399 273.075 80.7443 278.591 80.7443C283.35 80.7443 287.516 81.6084 291.091 83.3366C294.666 85.0649 297.495 87.4915 299.578 90.6165C301.662 93.7415 302.81 97.411 303.023 101.625H288.748C288.345 98.9025 287.28 96.7126 285.551 95.0554C283.847 93.3745 281.61 92.5341 278.84 92.5341C276.496 92.5341 274.448 93.1733 272.696 94.4517C270.968 95.7064 269.619 97.5412 268.648 99.956C267.677 102.371 267.192 105.295 267.192 108.727C267.192 112.207 267.666 115.167 268.613 117.605C269.583 120.044 270.944 121.902 272.696 123.18C274.448 124.459 276.496 125.098 278.84 125.098C280.568 125.098 282.119 124.743 283.492 124.033C284.889 123.322 286.037 122.293 286.936 120.943C287.86 119.57 288.463 117.925 288.748 116.007H303.023C302.786 120.174 301.65 123.843 299.614 127.016C297.602 130.164 294.82 132.626 291.269 134.402C287.718 136.178 283.516 137.065 278.662 137.065ZM304.709 136V81.4545H319.126V91.0781H319.766C320.902 87.8821 322.796 85.3608 325.447 83.5142C328.099 81.6676 331.271 80.7443 334.964 80.7443C338.705 80.7443 341.889 81.6795 344.517 83.5497C347.145 85.3963 348.897 87.9058 349.773 91.0781H350.341C351.454 87.9531 353.466 85.4555 356.378 83.5852C359.313 81.6913 362.782 80.7443 366.783 80.7443C371.873 80.7443 376.004 82.366 379.176 85.6094C382.372 88.8291 383.97 93.3982 383.97 99.3168V136H368.878V102.3C368.878 99.2694 368.073 96.9967 366.463 95.4815C364.853 93.9664 362.841 93.2088 360.426 93.2088C357.68 93.2088 355.537 94.0848 353.999 95.8366C352.46 97.5649 351.69 99.8494 351.69 102.69V136H337.024V101.98C337.024 99.3049 336.255 97.1742 334.716 95.5881C333.201 94.0019 331.2 93.2088 328.714 93.2088C327.034 93.2088 325.518 93.6349 324.169 94.4872C322.843 95.3158 321.79 96.4877 321.009 98.0028C320.227 99.4943 319.837 101.246 319.837 103.259V136H304.709ZM403.474 137.03C399.994 137.03 396.892 136.426 394.17 135.219C391.447 133.988 389.293 132.177 387.707 129.786C386.144 127.371 385.363 124.364 385.363 120.766C385.363 117.735 385.919 115.19 387.032 113.131C388.145 111.071 389.66 109.414 391.577 108.159C393.495 106.904 395.673 105.957 398.112 105.318C400.574 104.679 403.154 104.229 405.853 103.969C409.025 103.637 411.582 103.33 413.523 103.045C415.465 102.738 416.873 102.288 417.749 101.696C418.625 101.104 419.063 100.228 419.063 99.0682V98.8551C419.063 96.6061 418.353 94.866 416.933 93.6349C415.536 92.4039 413.547 91.7884 410.967 91.7884C408.244 91.7884 406.078 92.392 404.468 93.5994C402.858 94.7831 401.793 96.2746 401.272 98.0739L387.281 96.9375C387.991 93.6231 389.388 90.7585 391.471 88.3438C393.554 85.9053 396.241 84.035 399.532 82.733C402.846 81.4072 406.682 80.7443 411.038 80.7443C414.068 80.7443 416.968 81.0994 419.738 81.8097C422.531 82.5199 425.005 83.6207 427.16 85.1122C429.338 86.6037 431.054 88.5213 432.309 90.8651C433.564 93.1851 434.191 95.9669 434.191 99.2102V136H419.844V128.436H419.418C418.542 130.141 417.371 131.644 415.903 132.946C414.435 134.224 412.671 135.231 410.612 135.964C408.552 136.675 406.173 137.03 403.474 137.03ZM407.806 126.589C410.031 126.589 411.996 126.152 413.701 125.276C415.406 124.376 416.743 123.169 417.714 121.653C418.684 120.138 419.17 118.422 419.17 116.504V110.716C418.696 111.024 418.045 111.308 417.217 111.568C416.412 111.805 415.5 112.03 414.482 112.243C413.464 112.432 412.446 112.61 411.428 112.776C410.41 112.918 409.487 113.048 408.658 113.166C406.883 113.427 405.332 113.841 404.006 114.409C402.681 114.977 401.651 115.747 400.917 116.717C400.183 117.664 399.816 118.848 399.816 120.268C399.816 122.328 400.562 123.902 402.053 124.991C403.568 126.057 405.486 126.589 407.806 126.589ZM437.928 136V81.4545H453.055V136H437.928ZM445.527 74.4233C443.278 74.4233 441.348 73.6776 439.739 72.1861C438.152 70.6709 437.359 68.8598 437.359 66.7528C437.359 64.6695 438.152 62.8821 439.739 61.3906C441.348 59.8755 443.278 59.1179 445.527 59.1179C447.776 59.1179 449.694 59.8755 451.28 61.3906C452.89 62.8821 453.695 64.6695 453.695 66.7528C453.695 68.8598 452.89 70.6709 451.28 72.1861C449.694 73.6776 447.776 74.4233 445.527 74.4233ZM472.301 63.2727V136H457.174V63.2727H472.301ZM521.803 97.0085L507.954 97.8608C507.717 96.6771 507.208 95.6117 506.427 94.6648C505.646 93.6941 504.616 92.9247 503.337 92.3565C502.083 91.7647 500.579 91.4688 498.827 91.4688C496.484 91.4688 494.507 91.9659 492.897 92.9602C491.287 93.9309 490.482 95.233 490.482 96.8665C490.482 98.1686 491.003 99.2694 492.045 100.169C493.086 101.069 494.874 101.791 497.407 102.335L507.279 104.324C512.582 105.413 516.536 107.165 519.14 109.58C521.744 111.994 523.046 115.167 523.046 119.097C523.046 122.671 521.993 125.808 519.886 128.507C517.802 131.206 514.938 133.313 511.292 134.828C507.67 136.32 503.491 137.065 498.756 137.065C491.536 137.065 485.783 135.562 481.498 132.555C477.237 129.525 474.739 125.406 474.005 120.197L488.884 119.416C489.334 121.618 490.423 123.299 492.151 124.459C493.879 125.595 496.093 126.163 498.792 126.163C501.443 126.163 503.574 125.654 505.184 124.636C506.817 123.595 507.646 122.257 507.67 120.624C507.646 119.25 507.066 118.126 505.93 117.25C504.793 116.35 503.041 115.664 500.674 115.19L491.228 113.308C485.901 112.243 481.936 110.396 479.332 107.768C476.751 105.141 475.461 101.791 475.461 97.7188C475.461 94.215 476.408 91.1965 478.302 88.6634C480.219 86.1302 482.906 84.1771 486.363 82.804C489.843 81.4309 493.915 80.7443 498.579 80.7443C505.468 80.7443 510.889 82.2003 514.843 85.1122C518.82 88.0241 521.14 91.9896 521.803 97.0085Z" fill="#141A1E"/>
<line x1="81" y1="156" x2="132" y2="156" stroke="#4E9ED3" stroke-width="14"/>
</svg>
